<svg xmlns="http://www.w3.org/2000/svg" width="192" height="192" viewBox="0 0 192 192">
  <path d="M36.6,20.4c-5,1.9 -10.3,6.2 -14.1,11.5l-3,4.3 -0.3,57.6c-0.2,52.1 -0.1,58.1 1.4,62.1 2.3,6.1 8.4,12.4 14.4,15 5,2.1 5.6,2.2 61.8,1.9 56.7,-0.3 56.7,-0.3 60.9,-2.6 5.6,-2.9 10.5,-8 13.2,-13.4 2.1,-4.4 2.1,-5.2 2.1,-60.9l0,-56.4 -2.2,-4.1c-3.6,-6.5 -6.2,-9.2 -12.3,-12.8l-5.6,-3.4 -17.7,0.6c-19.5,0.8 -46.7,0.7 -75.7,-0.2 -15,-0.4 -19.8,-0.3 -22.9,0.8zM154.6,47.3c0.4,0.4 -1,8.2 -3.1,17.4 -2.1,9.3 -4,18 -4.3,19.6 -0.2,1.5 -0.8,3 -1.2,3.2 -0.5,0.3 -5.5,-0.8 -11.2,-2.4 -16.9,-4.9 -22,-5.5 -41.8,-5.5 -16.2,-0 -28.8,1.1 -35.5,3 -1.4,0.4 -1.7,0.3 -1,-0.4 1.4,-1.5 15.5,-4.9 26,-6.3 12.2,-1.6 32.5,-0.6 44,2.2 5,1.1 9.9,2.3 11,2.5 1.8,0.4 2.8,-1.4 8.1,-15l6.2,-15.5 -3.2,-0.7c-8.9,-2 -63.8,-0.1 -70.8,2.5 -1.1,0.4 2.4,2.7 11.6,7.4l13.2,6.8 17.9,-6c9.9,-3.4 17.2,-5.4 16.1,-4.6 -2.4,1.9 -31.4,14.6 -33.6,14.8 -2.7,0.2 -33.4,-18.5 -31.8,-19.3 1.2,-0.7 19.9,-3.5 29.3,-4.4 7,-0.7 53.3,-0.1 54.1,0.7zM73.9,65.4c-0.2,0.3 -3.4,1.1 -7,2 -12.4,2.8 -24.6,9.3 -26.8,14.3 -1.7,3.7 -0.7,4 3.1,0.8 5.8,-5 22,-10.7 29.4,-10.4 2.6,0.1 2.4,0.2 -1.1,1 -12.5,2.9 -23,7.6 -27.5,12.4l-2.3,2.5 3.8,1.6c9.1,3.8 17.4,4.7 41.5,4.8 12.9,0.1 28.9,-0.2 35.5,-0.6l12,-0.6 -7.5,1.3c-28.9,5 -67.5,4.1 -82.5,-2l-4,-1.6 2.8,2.5c6.7,6.1 22.8,8.1 58.7,7.2 15.1,-0.3 29.3,-0.8 31.5,-1.1 2.7,-0.3 3.4,-0.2 2,0.4 -8.8,3.7 -65.8,5.1 -79.5,1.8 -12.5,-2.9 -16,-5.6 -18.7,-14.3 -2,-6.2 2.5,-11.7 13.7,-16.8 6.5,-2.9 24.8,-7.1 22.9,-5.2zM50,112c0,0.5 -0.4,1 -0.9,1 -0.5,-0 -1.1,0.9 -1.4,2 -0.8,3.1 1.6,2.4 3.5,-1 1.9,-3.3 5.2,-4.2 4.6,-1.3 -0.2,1 -0.9,1.7 -1.6,1.6 -1.7,-0.4 -3.1,2.8 -2.5,5.9 0.4,1.9 1,2.5 2,2.1 1.3,-0.5 1.3,-0.3 0.3,1.6 -1.6,3.2 -4.5,2.3 -4.5,-1.4 -0.1,-2 -0.6,-3 -1.5,-3 -1.1,-0 -1.5,1 -1.4,3.2 0.2,3 -0.1,3.3 -2.7,3.3 -1.6,-0 -2.9,-0.5 -2.9,-1 0,-0.6 0.4,-1 0.9,-1 1.3,-0 3.4,-8.5 2.6,-10.9 -0.5,-1.8 -0.2,-2.1 2.4,-2.1 1.7,-0 3.1,0.4 3.1,1zM69,111.9c0,0.5 -0.7,1.1 -1.5,1.5 -2.5,0.9 -1.7,3 1.7,5 4.1,2.3 5.7,1.3 5.3,-2.7 -0.3,-4.5 -2.5,-6.6 -6.1,-5.5 -2.3,0.6 -2.6,0.6 -2.6,-0.1zM121,119c-0.1,1.1 -0.8,1.8 -1.5,2.1 -1.5,0.4 -2.3,-0.4 -2.1,-1.8 0.3,-1.4 1.5,-2.3 3.2,-2 2.5,0.4 3.7,1.7 3.3,3.5zM112,131.1c0,0.4 -0.4,1 -0.9,1 -0.5,0 -1,-0.5 -1,-1 0,-0.5 0.5,-1 1,-1 0.5,0 0.9,0.5 0.9,1z" />
</svg>
