<svg xmlns="http://www.w3.org/2000/svg" width="140" height="140" viewBox="0 0 140 140">
  <defs>
    <linearGradient id="grad1" x1="7.29" y1="7.29" x2="132.77" y2="132.65">
      <stop offset="0" stop-color="#3FFFFFFF" />
      <stop offset="1" stop-color="#00FFFFFF" />
    </linearGradient>
    <linearGradient id="grad2" x1="70.6" y1="145.09" x2="199.32" y2="54.78">
      <stop offset="0" stop-color="#FFFFFFFF" />
      <stop offset="1" stop-color="#33FFFFFF" />
    </linearGradient>
  </defs>

  <path d="M7.29,70C7.29,35.37 35.37,7.29 70,7.29C104.63,7.29 132.71,35.37 132.71,70C132.71,87.78 125.3,103.84 113.42,115.25C102.15,126.06 86.85,132.71 70,132.71C53.15,132.71 37.85,126.06 26.59,115.25C14.7,103.84 7.29,87.78 7.29,70Z" fill="#29ACD6" fill-opacity="0.35" />

  <path d="M70,6.79C35.09,6.79 6.79,35.09 6.79,70C6.79,87.92 14.26,104.11 26.24,115.61C37.59,126.5 53.02,133.21 70,133.21C86.98,133.21 102.41,126.5 113.76,115.61C125.74,104.11 133.21,87.92 133.21,70C133.21,35.09 104.91,6.79 70,6.79Z" fill="none" stroke="url(#grad1)" stroke-width="1" stroke-linecap="round" />

  <path d="M105.49,110.65C102.97,103.13 95.86,97.71 87.5,97.71H52.5C44.14,97.71 37.03,103.13 34.52,110.65C44,118.94 56.41,123.96 70,123.96C83.59,123.96 96,118.94 105.49,110.65Z" fill="url(#grad2)" />

  <path d="M70,24.79C54.7,24.79 42.29,37.2 42.29,52.5C42.29,67.8 54.7,80.21 70,80.21C85.3,80.21 97.71,67.8 97.71,52.5C97.71,37.2 85.3,24.79 70,24.79Z" fill="url(#grad2)" />
</svg>
