<svg xmlns="http://www.w3.org/2000/svg" width="24" height="24" viewBox="0 0 24 24">
  <path d="M2,17.128C2,15.571 3.263,14.308 4.821,14.308C6.378,14.308 7.641,15.571 7.641,17.128V19.18C7.641,20.737 6.378,22 4.821,22C3.263,22 2,20.737 2,19.18V17.128Z"
      fill="#2E68FF"/>
  <path d="M4.821,15.846C4.112,15.846 3.538,16.42 3.538,17.128V19.18C3.538,19.888 4.112,20.462 4.821,20.462C5.529,20.462 6.103,19.888 6.103,19.18V17.128C6.103,16.42 5.529,15.846 4.821,15.846Z"
      fill="#2E68FF"/>
  <path d="M9.179,10.974C9.179,9.417 10.442,8.154 12,8.154C13.558,8.154 14.821,9.417 14.821,10.974V19.18C14.821,20.737 13.558,22 12,22C10.442,22 9.179,20.737 9.179,19.18V10.974Z"
      fill="#2E68FF"/>
  <path d="M12,9.692C11.292,9.692 10.718,10.266 10.718,10.974V19.18C10.718,19.888 11.292,20.462 12,20.462C12.708,20.462 13.282,19.888 13.282,19.18V10.974C13.282,10.266 12.708,9.692 12,9.692Z"
      fill="#2E68FF"/>
  <path d="M16.359,4.821C16.359,3.263 17.622,2 19.18,2C20.737,2 22,3.263 22,4.821V19.18C22,20.737 20.737,22 19.18,22C17.622,22 16.359,20.737 16.359,19.18V4.821Z"
      fill="#2E68FF"/>
  <path d="M19.18,3.538C18.471,3.538 17.897,4.112 17.897,4.821V19.18C17.897,19.888 18.471,20.462 19.18,20.462C19.888,20.462 20.462,19.888 20.462,19.18V4.821C20.462,4.112 19.888,3.538 19.18,3.538Z"
      fill="#2E68FF"/>
</svg>
